<svg width="32" height="32" viewBox="0 0 32 32" fill="none" xmlns="http://www.w3.org/2000/svg">
<rect width="32" height="32" fill="#F5F5F5"/>
<rect width="32" height="32" rx="6" fill="#FF0000"/>
<path d="M1.57813 24L4.23438 8H10.3594C11.5156 8 12.4479 8.18229 13.1562 8.54687C13.8646 8.90625 14.3568 9.39844 14.6328 10.0234C14.9141 10.6484 14.987 11.3568 14.8516 12.1484C14.7422 12.7943 14.5234 13.349 14.1953 13.8125C13.8724 14.2708 13.4766 14.6458 13.0078 14.9375C12.5391 15.224 12.0365 15.4297 11.5 15.5547L11.4688 15.7109C12.0313 15.737 12.5469 15.9089 13.0156 16.2266C13.4844 16.5443 13.8385 16.9922 14.0781 17.5703C14.3177 18.1432 14.3724 18.8333 14.2422 19.6406C14.1016 20.4687 13.776 21.2135 13.2656 21.875C12.7552 22.5312 12.0625 23.0495 11.1875 23.4297C10.3177 23.8099 9.27344 24 8.05469 24H1.57813ZM4.88281 21.5781H8C9.04687 21.5781 9.83854 21.3776 10.375 20.9766C10.9115 20.5703 11.2318 20.0495 11.3359 19.4141C11.4141 18.9401 11.3672 18.513 11.1953 18.1328C11.0234 17.7474 10.7396 17.4453 10.3438 17.2266C9.94792 17.0026 9.45313 16.8906 8.85938 16.8906H5.65625L4.88281 21.5781ZM6.01563 14.8047H8.88281C9.38281 14.8047 9.84635 14.7135 10.2734 14.5312C10.7057 14.3437 11.0651 14.0807 11.3516 13.7422C11.6432 13.3984 11.8229 12.9922 11.8906 12.5234C12 11.9036 11.8698 11.3932 11.5 10.9922C11.1302 10.5911 10.5208 10.3906 9.67188 10.3906H6.73437L6.01563 14.8047ZM16.0371 24L18.6934 8H24.8184C25.9746 8 26.9069 8.18229 27.6152 8.54687C28.3236 8.90625 28.8158 9.39844 29.0918 10.0234C29.373 10.6484 29.446 11.3568 29.3105 12.1484C29.2012 12.7943 28.9824 13.349 28.6543 13.8125C28.3314 14.2708 27.9355 14.6458 27.4668 14.9375C26.998 15.224 26.4954 15.4297 25.959 15.5547L25.9277 15.7109C26.4902 15.737 27.0059 15.9089 27.4746 16.2266C27.9434 16.5443 28.2975 16.9922 28.5371 17.5703C28.7767 18.1432 28.8314 18.8333 28.7012 19.6406C28.5605 20.4687 28.235 21.2135 27.7246 21.875C27.2142 22.5312 26.5215 23.0495 25.6465 23.4297C24.7767 23.8099 23.7324 24 22.5137 24H16.0371ZM19.3418 21.5781H22.459C23.5059 21.5781 24.2975 21.3776 24.834 20.9766C25.3704 20.5703 25.6908 20.0495 25.7949 19.4141C25.873 18.9401 25.8262 18.513 25.6543 18.1328C25.4824 17.7474 25.1986 17.4453 24.8027 17.2266C24.4069 17.0026 23.9121 16.8906 23.3184 16.8906H20.1152L19.3418 21.5781ZM20.4746 14.8047H23.3418C23.8418 14.8047 24.3053 14.7135 24.7324 14.5312C25.1647 14.3437 25.5241 14.0807 25.8105 13.7422C26.1022 13.3984 26.2819 12.9922 26.3496 12.5234C26.459 11.9036 26.3288 11.3932 25.959 10.9922C25.5892 10.5911 24.9798 10.3906 24.1309 10.3906H21.1934L20.4746 14.8047Z" fill="white"/>
</svg>
