<svg width="200" height="151" viewBox="0 0 200 151" fill="none" xmlns="http://www.w3.org/2000/svg">
<rect width="200" height="151" rx="36" fill="#FF0000"/>
<path d="M8.6875 114L23.8875 42.5H68.9875L66.4875 54H34.8875L22.1875 114H8.6875ZM27.5875 84L30.0875 72.4H60.7875L58.2875 84H27.5875ZM65.9141 114L81.1141 42.5H106.714C112.647 42.5 117.347 44.0333 120.814 47.1C124.347 50.1 126.114 54.1333 126.114 59.2C126.114 63.0667 125.047 66.5 122.914 69.5C120.781 72.5 117.847 74.8667 114.114 76.6C110.381 78.2667 106.047 79.1 101.114 79.1H87.7141L88.8141 74H100.714C105.181 74 109.081 74.7333 112.414 76.2C115.814 77.6 118.447 79.6333 120.314 82.3C122.247 84.9 123.214 87.9333 123.214 91.4C123.214 95.8667 121.981 99.8 119.514 103.2C117.047 106.6 113.614 109.267 109.214 111.2C104.881 113.067 99.8141 114 94.0141 114H65.9141ZM81.8141 102.6H95.9141C100.047 102.6 103.347 101.6 105.814 99.6C108.347 97.5333 109.614 94.8667 109.614 91.6C109.614 88.7333 108.814 86.5667 107.214 85.1C105.681 83.6333 103.314 82.9 100.114 82.9H85.0141L87.4141 71.8H100.314C103.981 71.8 106.914 70.8667 109.114 69C111.381 67.1333 112.514 64.6667 112.514 61.6C112.514 59.2 111.747 57.3333 110.214 56C108.747 54.6 106.681 53.9 104.014 53.9H92.1141L81.8141 102.6ZM132.613 114L147.813 42.5H173.413C179.347 42.5 184.047 44.0333 187.513 47.1C191.047 50.1 192.813 54.1333 192.813 59.2C192.813 63.0667 191.747 66.5 189.613 69.5C187.48 72.5 184.547 74.8667 180.813 76.6C177.08 78.2667 172.747 79.1 167.813 79.1H154.413L155.513 74H167.413C171.88 74 175.78 74.7333 179.113 76.2C182.513 77.6 185.147 79.6333 187.013 82.3C188.947 84.9 189.913 87.9333 189.913 91.4C189.913 95.8667 188.68 99.8 186.213 103.2C183.747 106.6 180.313 109.267 175.913 111.2C171.58 113.067 166.513 114 160.713 114H132.613ZM148.513 102.6H162.613C166.747 102.6 170.047 101.6 172.513 99.6C175.047 97.5333 176.313 94.8667 176.313 91.6C176.313 88.7333 175.513 86.5667 173.913 85.1C172.38 83.6333 170.013 82.9 166.813 82.9H151.713L154.113 71.8H167.013C170.68 71.8 173.613 70.8667 175.813 69C178.08 67.1333 179.213 64.6667 179.213 61.6C179.213 59.2 178.447 57.3333 176.913 56C175.447 54.6 173.38 53.9 170.713 53.9H158.813L148.513 102.6Z" fill="white"/>
</svg>
